<?xml version="1.0" standalone="no"?>
<!DOCTYPE svg PUBLIC "-//W3C//DTD SVG 20010904//EN"
 "http://www.w3.org/TR/2001/REC-SVG-20010904/DTD/svg10.dtd">
<svg version="1.0" xmlns="http://www.w3.org/2000/svg"
 width="900.000000pt" height="684.000000pt" viewBox="0 0 900.000000 684.000000"
 preserveAspectRatio="xMidYMid meet">
<g transform="translate(0.000000,684.000000) scale(0.100000,-0.100000)"
fill="#000000" stroke="none">
<path d="M880 5135 c-7 -8 -18 -15 -25 -15 -14 0 -86 -75 -106 -111 -9 -15
-14 -58 -14 -120 0 -78 3 -101 18 -116 9 -11 17 -23 17 -27 0 -5 14 -25 30
-46 17 -21 30 -43 30 -49 0 -6 4 -11 9 -11 6 0 16 -11 23 -25 7 -13 54 -83
103 -155 50 -72 95 -139 100 -148 6 -9 29 -42 53 -74 23 -31 42 -61 42 -67 0
-6 4 -11 9 -11 6 0 16 -11 23 -25 7 -13 40 -63 73 -110 33 -48 65 -94 70 -103
6 -9 22 -33 38 -53 15 -20 27 -40 27 -44 0 -3 26 -41 58 -83 31 -43 62 -85 67
-94 6 -9 37 -56 70 -103 33 -48 65 -94 70 -103 6 -9 29 -42 53 -74 23 -31 42
-59 42 -63 0 -4 19 -32 43 -63 23 -32 47 -65 52 -74 6 -9 37 -55 70 -103 33
-47 65 -94 70 -103 6 -9 29 -42 52 -74 24 -31 43 -61 43 -66 0 -6 3 -12 8 -14
7 -3 50 -62 82 -113 8 -13 42 -62 75 -110 33 -47 65 -94 70 -103 6 -9 35 -50
65 -92 30 -42 60 -83 65 -92 6 -9 37 -56 70 -103 33 -48 65 -94 70 -103 6 -9
22 -33 38 -53 15 -20 27 -40 27 -44 0 -3 27 -42 60 -85 33 -43 60 -82 60 -87
0 -13 73 -90 100 -104 111 -60 237 -45 330 38 27 24 50 52 50 61 0 10 7 26 15
36 20 27 20 155 0 182 -8 10 -15 25 -15 32 0 8 -19 39 -42 70 -24 32 -47 65
-53 74 -5 9 -37 55 -70 103 -33 47 -67 97 -75 110 -30 47 -94 140 -99 145 -7
6 -58 79 -81 115 -8 13 -42 62 -75 110 -33 47 -64 94 -70 103 -5 9 -29 42 -52
74 -24 31 -43 61 -43 67 0 6 -4 11 -9 11 -6 0 -16 11 -23 25 -7 13 -53 83
-103 155 -49 72 -94 139 -100 148 -5 9 -29 42 -52 74 -24 31 -43 61 -43 67 0
6 -4 11 -9 11 -6 0 -16 11 -23 25 -7 13 -49 77 -94 142 -44 65 -96 141 -114
168 -19 28 -36 52 -40 55 -6 6 -59 81 -80 115 -8 13 -42 63 -75 110 -33 48
-67 97 -75 110 -34 52 -94 140 -99 145 -7 6 -58 79 -81 115 -8 13 -42 62 -75
110 -33 47 -67 97 -75 110 -30 47 -75 110 -97 135 -13 14 -23 29 -23 33 0 5
-13 26 -30 47 -16 21 -30 42 -30 47 0 19 -92 112 -130 132 -52 27 -219 31
-240 6z"/>
<path d="M2200 5135 c-7 -8 -18 -15 -24 -15 -11 0 -65 -53 -95 -93 -26 -33
-39 -129 -27 -190 6 -31 17 -62 24 -69 6 -6 12 -16 12 -21 0 -5 14 -26 30 -47
17 -21 30 -42 30 -48 0 -6 3 -12 8 -14 7 -3 50 -62 82 -113 8 -13 42 -62 75
-110 33 -47 65 -94 70 -103 6 -9 29 -42 53 -74 23 -31 42 -61 42 -66 0 -6 3
-12 8 -14 4 -1 17 -17 29 -35 25 -36 161 -235 207 -303 16 -25 48 -70 70 -100
23 -31 46 -63 51 -72 6 -9 37 -56 70 -103 33 -48 67 -97 75 -110 32 -51 75
-110 83 -113 4 -2 7 -8 7 -14 0 -5 19 -35 43 -66 23 -32 47 -65 52 -74 6 -9
37 -55 70 -103 33 -47 65 -94 70 -103 28 -49 149 -202 172 -217 14 -9 54 -25
90 -35 57 -17 68 -17 105 -4 22 8 48 14 57 14 39 0 169 149 237 271 6 11 20
30 30 42 20 23 68 91 94 132 8 13 42 62 75 110 33 47 65 94 70 103 6 9 35 50
65 92 58 78 128 179 145 208 6 9 29 42 53 74 23 31 42 59 42 63 0 4 19 32 43
63 43 58 114 159 132 190 6 9 28 41 51 72 22 30 54 75 71 100 16 25 54 80 84
123 30 43 59 86 64 95 6 9 36 51 68 94 31 42 57 80 57 83 0 4 13 24 29 44 15
20 42 63 60 95 25 48 31 70 31 120 -1 38 -6 68 -15 80 -8 11 -15 27 -15 36 0
17 -78 96 -122 123 -37 23 -229 25 -248 2 -7 -8 -18 -15 -25 -15 -15 0 -103
-95 -118 -127 -6 -13 -14 -23 -19 -23 -4 0 -8 -5 -8 -10 0 -6 -5 -16 -10 -23
-27 -32 -80 -107 -80 -112 0 -4 -12 -24 -27 -44 -16 -20 -32 -44 -38 -53 -5
-9 -50 -76 -100 -148 -49 -72 -94 -139 -100 -148 -5 -9 -22 -33 -37 -53 -16
-20 -28 -40 -28 -44 0 -3 -19 -32 -43 -63 -42 -55 -112 -155 -132 -190 -5 -10
-21 -33 -35 -52 -14 -19 -29 -42 -35 -52 -5 -9 -37 -55 -70 -103 -33 -47 -65
-95 -71 -105 -19 -34 -65 -71 -120 -96 -95 -43 -191 -27 -280 50 -33 28 -119
142 -169 224 -5 9 -35 50 -65 92 -30 42 -59 83 -65 92 -5 9 -34 52 -64 95 -30
43 -68 98 -85 123 -16 25 -32 47 -35 50 -4 3 -16 19 -28 36 -54 78 -129 188
-143 209 -25 40 -74 108 -94 132 -10 12 -24 31 -30 42 -6 11 -38 58 -71 106
-33 47 -65 95 -71 105 -16 28 -83 90 -98 90 -8 0 -19 7 -26 15 -10 11 -35 15
-110 15 -75 0 -100 -4 -110 -15z"/>
<path d="M6040 4916 c-65 -16 -104 -40 -137 -83 -73 -97 -84 -191 -32 -289 18
-32 43 -75 58 -94 14 -19 31 -43 36 -52 6 -9 37 -56 70 -103 33 -48 65 -94 70
-103 6 -9 22 -33 38 -53 15 -20 27 -40 27 -44 0 -3 26 -41 58 -83 31 -43 62
-85 67 -94 6 -9 51 -76 100 -148 50 -72 95 -139 100 -148 6 -9 29 -42 53 -74
23 -31 42 -61 42 -66 0 -6 3 -12 8 -14 7 -3 49 -61 82 -113 8 -12 56 -82 105
-155 50 -72 95 -139 100 -148 6 -9 35 -50 65 -92 30 -42 60 -83 65 -92 6 -9
51 -76 100 -148 50 -72 97 -142 105 -155 31 -48 94 -140 99 -145 7 -6 59 -80
81 -115 8 -13 42 -63 75 -110 33 -48 65 -94 70 -103 6 -9 22 -33 38 -53 15
-20 27 -40 27 -44 0 -3 20 -33 45 -65 25 -32 45 -63 45 -69 0 -6 5 -11 10 -11
6 0 14 -10 19 -23 13 -33 100 -127 119 -127 10 0 26 -7 36 -15 32 -24 159 -20
214 6 44 22 112 83 112 102 0 6 7 19 17 29 12 14 16 39 17 106 0 93 -7 115
-66 193 -16 20 -28 40 -28 44 0 3 -19 32 -43 63 -39 53 -169 241 -192 280 -5
9 -29 42 -52 74 -24 31 -43 61 -43 67 0 6 -4 11 -9 11 -6 0 -16 11 -23 25 -7
13 -40 63 -73 110 -33 48 -64 94 -70 103 -5 9 -22 33 -37 53 -16 20 -28 40
-28 44 0 3 -26 41 -57 83 -32 43 -62 85 -68 94 -5 9 -37 56 -70 103 -33 48
-64 94 -70 103 -5 9 -29 42 -52 74 -24 31 -43 59 -43 63 0 4 -19 32 -42 63
-24 32 -47 65 -53 74 -5 9 -37 55 -70 103 -33 47 -64 94 -70 103 -5 9 -29 42
-52 74 -24 31 -43 61 -43 66 0 6 -3 12 -7 14 -8 3 -51 62 -83 113 -8 13 -42
62 -75 110 -33 47 -64 94 -70 103 -5 9 -35 50 -65 92 -30 42 -59 83 -65 92 -5
9 -37 56 -70 103 -33 48 -64 94 -70 103 -30 50 -99 134 -126 152 -28 21 -126
50 -159 48 -8 0 -35 -6 -60 -12z"/>
<path d="M5345 3933 c-126 -39 -199 -98 -264 -213 -26 -45 -39 -161 -26 -237
23 -138 92 -228 228 -298 32 -16 59 -19 155 -19 113 0 119 1 177 33 97 52 176
146 196 231 4 19 12 53 18 75 12 46 -8 149 -41 222 -25 54 -118 147 -171 171
-117 54 -183 62 -272 35z"/>
<path d="M4795 3186 c-11 -9 -30 -16 -41 -16 -12 0 -27 -7 -34 -15 -7 -8 -18
-15 -24 -15 -14 0 -104 -96 -117 -124 -5 -12 -13 -28 -18 -36 -21 -36 -41
-119 -41 -170 0 -51 20 -134 41 -170 5 -8 13 -25 18 -37 13 -28 96 -111 124
-124 12 -5 29 -13 37 -18 53 -31 96 -41 178 -41 62 0 94 4 108 15 10 8 27 15
37 15 50 1 207 146 207 192 0 8 7 23 15 34 11 14 14 49 15 132 0 112 -3 125
-41 192 -5 8 -12 21 -16 29 -19 41 -122 126 -182 150 -54 22 -240 26 -266 7z"/>
<path d="M5987 3091 c-63 -23 -129 -79 -157 -133 -18 -35 -22 -59 -22 -131 0
-66 4 -93 16 -106 9 -10 16 -21 16 -25 0 -5 12 -25 28 -45 15 -20 32 -44 37
-53 6 -9 37 -55 70 -103 33 -47 65 -94 70 -103 6 -9 22 -33 38 -53 15 -20 27
-41 27 -46 0 -4 12 -21 28 -38 15 -16 32 -37 37 -47 6 -9 51 -76 100 -148 50
-72 95 -139 100 -148 54 -90 161 -212 186 -212 9 0 22 -7 29 -15 20 -25 172
-21 227 6 47 23 133 114 133 141 0 10 8 33 17 53 15 31 15 41 4 78 -7 23 -15
53 -18 66 -6 25 -60 111 -76 122 -5 4 -14 16 -20 27 -18 31 -84 126 -149 214
-32 42 -58 80 -58 83 0 4 -20 33 -45 65 -25 32 -45 62 -45 67 0 4 -12 21 -27
38 -16 16 -32 37 -38 47 -16 27 -86 127 -132 190 -24 31 -43 59 -43 62 0 20
-120 136 -140 136 -10 0 -31 7 -46 15 -37 19 -87 18 -147 -4z"/>
<path d="M4315 2458 c-102 -21 -213 -94 -245 -163 -6 -11 -14 -27 -19 -35 -40
-71 -43 -82 -43 -190 1 -83 4 -115 16 -132 9 -12 16 -29 16 -36 0 -14 46 -79
85 -118 51 -53 180 -103 267 -104 49 0 122 17 178 43 72 33 190 164 190 211 0
7 7 27 16 45 28 57 14 175 -35 280 -21 46 -135 161 -160 161 -10 0 -24 6 -30
14 -20 24 -165 38 -236 24z"/>
</g>
</svg>